<svg xmlns="http://www.w3.org/2000/svg" xmlns:xlink="http://www.w3.org/1999/xlink" width="576" height="525"><style><![CDATA[.B{fill:#79c9e8}.C{fill:#49b4d6}.D{fill:#ffbf4d}.E{fill:#0582c1}.F{fill:#00668e}.G{fill:#f98d2b}]]></style><defs><clipPath id="A"><path d="M0 500h500V0H0z"/></clipPath><clipPath id="B"><path d="M186.1 318.334h279.847v-211.89H186.1z"/></clipPath><clipPath id="C"><path d="M167.804 256.13h27.813v-60.395h-27.813z"/></clipPath><clipPath id="D"><path d="M197.202 177.253h146.863v-7.248H197.202z"/></clipPath><clipPath id="E"><path d="M201.295 164.334h140.24v-14.936h-140.24z"/></clipPath><clipPath id="F"><path d="M341.534 164.334h-140.24v-14.936h140.24z"/></clipPath><linearGradient x1="271.414" y1="138.657" x2="271.414" y2="162.712" gradientUnits="userSpaceOnUse" spreadMethod="pad" id="G"><stop offset="0" stop-color="#fff"/><stop offset=".649" stop-opacity="0" stop-color="#fff"/><stop offset="1" stop-opacity="0" stop-color="#fff"/></linearGradient><mask maskUnits="userSpaceOnUse" x="0" y="0" width="1" height="1" id="H"><path d="M-32768 32767h65535v-65535h-65535z" fill="url(#G)" stroke="none"/></mask><linearGradient x1="271.414" y1="138.657" x2="271.414" y2="162.712" gradientUnits="userSpaceOnUse" spreadMethod="pad" id="I"><stop offset="0" stop-color="#fff"/><stop offset=".649" stop-color="#fff"/><stop offset="1" stop-color="#fff"/></linearGradient><clipPath id="J"><path d="M352.934 117.162H399.7v-7.435h-46.776z"/></clipPath><clipPath id="K"><path d="M373.015 162.074h24.85v-47.9h-24.85z"/></clipPath><path id="L" d="M135.603 266.13c.162 0 .298-.13.298-.324 0-.18-.136-.313-.298-.313s-.304.132-.304.313c0 .193.137.324.304.324"/></defs><g clip-path="url(#A)" transform="matrix(1.333333 0 0 -1.333333 -45.390655 666.925288)"><path d="M453.06 106.444a12.73 12.73 0 0 1 12.73 12.524c.533 34.645 3.324 85.747-61.92 99.88-52.8 11.437-21.495 105.268-163.69 99.206-102.073-4.352-74.955-90.387-154.32-97.552-52.8-4.768-53.266-71.56-51.237-102.162.444-6.695 5.997-11.895 12.706-11.895z" fill="#b5dfea"/><g clip-path="url(#B)" opacity=".55"><path d="M403.867 218.848c-52.8 11.437-21.494 105.268-163.688 99.206-24.277-1.036-41.237-6.697-54.07-14.813 4.322.565 8.91.965 13.8 1.173 142.195 6.063 110.89-87.768 163.69-99.205 64.55-13.982 62.506-64.147 61.94-98.764h27.518a12.73 12.73 0 0 1 12.731 12.524c.532 34.645 3.323 85.746-61.922 99.88" fill="#90cedd"/></g><path d="M177.77 336.2h2.245V500h-2.245zm160.974-25.16h2.245V500h-2.245z" class="B"/><path d="M340.774 322.054L173.827 341.54a13.01 13.01 0 0 1-14.427-11.41l-12.46-106.755a13.01 13.01 0 0 1 11.411-14.426l166.946-19.487a13.01 13.01 0 0 1 14.426 11.411l12.46 106.755a13.01 13.01 0 0 1-11.41 14.426" fill="#d7f0f9"/><path d="M350.95 297.06l1.233 10.567a13.01 13.01 0 0 1-11.41 14.426L173.827 341.54a13.01 13.01 0 0 1-14.426-11.41l-1.234-10.567z" class="E"/><path d="M204.585 252.132l2.73 23.4c.02.162-.2.233-.28.1L194.53 253.56c-.22-.4.028-.878.472-.93l8.887-1.037c.343-.04.654.206.694.55m-19.407 2.8l21.163 37.286c1.355 2.4 4 3.735 6.738 3.416a6.84 6.84 0 0 0 5.997-7.583l-4.402-37.716.188-.022c2.6-.303 4.46-2.655 4.156-5.253a4.74 4.74 0 0 0-5.254-4.157l-.188.023-.802-6.87c-.328-2.806-2.868-4.816-5.674-4.488a5.12 5.12 0 0 0-4.488 5.674l.802 6.87-15.235 1.778c-2.603.304-4.467 2.66-4.163 5.263l.404 3.46c.095.816.353 1.604.758 2.318m112.803-13.7l2.73 23.4c.02.162-.198.234-.28.1l-12.503-22.062a.63.63 0 0 1 .472-.931l8.887-1.037c.342-.04.654.206.694.55m-19.407 2.8l21.162 37.287a6.83 6.83 0 0 0 6.738 3.415c3.75-.437 6.436-3.832 5.998-7.582l-4.402-37.717.188-.02a4.74 4.74 0 0 0 4.156-5.254 4.74 4.74 0 0 0-5.254-4.156l-.2.022-.802-6.87c-.327-2.806-2.867-4.815-5.673-4.487s-4.816 2.867-4.488 5.674l.802 6.87-15.235 1.777c-2.604.305-4.467 2.66-4.163 5.264l.404 3.46c.095.815.353 1.603.758 2.317m-35.708-3.3c-.55-4.705 1.312-6.733 4.605-7.118s5.572 1.16 6.122 5.866l4.15 35.567c.55 4.705-1.312 6.734-4.605 7.12s-5.572-1.162-6.122-5.867zm-6.275 36.117c1.23 10.538 7.483 15.912 17.646 14.726s15-7.856 13.78-18.395l-3.998-34.25c-1.23-10.54-7.485-15.913-17.647-14.727s-15 7.856-13.78 18.395z" class="B"/><path d="M177.848 326.788c-.224-1.917-1.96-3.29-3.877-3.067s-3.3 1.96-3.066 3.877 1.96 3.29 3.877 3.067 3.3-1.96 3.066-3.877" fill="#fff"/><path d="M194.594 324.833c-.224-1.917-1.96-3.29-3.877-3.067a3.5 3.5 0 0 0-3.067 3.877c.224 1.918 1.96 3.29 3.877 3.067s3.29-1.96 3.067-3.877" class="B"/><path d="M211.953 322.807c-.224-1.917-1.96-3.3-3.877-3.066s-3.3 1.96-3.066 3.877 1.96 3.3 3.877 3.066 3.3-1.96 3.066-3.877" class="D"/><path d="M144.794 201.208s-2.255-9.997-1.88-20.22c.336-9.15-.752-69.31-.752-69.31h7.348l10.85 50.837c.4 3.72 5.652 40.93 5.652 40.93z" class="F"/><g class="E"><path d="M149.68 203.952s1.69-12.854 4.567-21.987 17.007-70.287 17.007-70.287h7.348l-1.86 50.836c-.508 3.72-4.23 40.93-4.23 40.93z"/><path d="M171.853 111.7v-5.128h13.988c.794 0 1.105 1.03.443 1.47-2.045 1.362-5.322 3.24-8.368 3.658zm-29.316 0v-5.128h13.988c.794 0 1.105 1.03.444 1.47-2.046 1.362-5.323 3.24-8.37 3.658z"/></g><path d="M167.774 263.745s4.81 7.305-.713 8.018c-4.24.547-5.986-.716-5.986-.716s-4.883.538-7.555-1.78c-1.832-1.587-8.553-13.898 2.316-18.352s8.552 6.95 8.552 6.95z" class="F"/><path d="M167.062 271.763c-4.24.547-5.986-.716-5.986-.716s-4.883.538-7.556-1.78c-1.83-1.587-8.552-13.898 2.317-18.352 5.11-2.094 7.304-.683 8.196 1.4-10.312-2.9-11.43 9.528-9.73 13.065 1.728 3.593 5.875 1.935 5.875 1.935 1.62 4.082 6.906 3.64 9.085 3.322-.397.567-1.086.982-2.2 1.126" fill="#05556d"/><path d="M161.003 260.182s-1.425 1.425-2.495 0-.356-4.633 1.426-4.81c0 0-.535-4.633-4.098-4.455v-3.74h8.375v2.85s5.167 2.138 4.988 6.414-1.425 7.305-1.425 7.305-2.85-3.207-6.77-3.563" fill="#f98d3d"/><path d="M162.285 248.827c.83-.345.684-.868.72-1.652h1.205v2.85s-2.03-.645-5.002 1.05c0 0 1.73-1.686 3.076-2.247" fill="#ed701b"/><path d="M164 267s-4.34 1.73-4.848.432c-.332-.85.512-1.58 1.67-2.32l-1.022-.168a.27.27 0 0 1-.13-.472c.285-.23 1.072-.385 2.713-.442z" fill="#f98d3d"/><path d="M144.34 206.46l-6.164 13.47 7.784 8.718-1.4-19.13zm50.655 49.67c-8.277 6.134-30.884 11.038-30.884 11.038l-1.862-3.394s20.523-7.954 19.168-9.14c-.796-.7-10.825-5.295-14.22-6.84a5.41 5.41 0 0 0-2.334-.479l-10.39.06s-7.496.892-13.394-5.884c-5.273-6.067-14.235-20.117-14.235-20.117l16.768-24.654.015.03-.015-.206 1.487-.147c4.853-.45 20.406-1.68 28.638.066l.23.052-.39 36.42c13.144 10.405 19.418 18.44 21.664 20.965a1.52 1.52 0 0 1-.243 2.231" class="D"/><path d="M142.867 209.678l1.473-3.218-.714-9.713-.015-.03-1.672 2.452z" fill="#efaa3a"/><g clip-path="url(#C)" opacity=".3" class="G"><path d="M170.063 234.242c-1.398-1.016-1.044-10.023-1.4-15.655-.578-9.43-1.14-17.592-.725-22.854 2.13.14 4.113.37 5.788.727l.23.052-.39 36.42c13.145 10.406 19.42 18.44 21.665 20.965.59.67.478 1.694-.243 2.232 0 0-10.39-11.327-24.933-21.887"/></g><path d="M176.74 162.515c-.366 2.685-2.405 22.804-3.513 33.8l-5.28-.582s7.703-63.332 8.2-84.056h2.443l-1.86 50.837" class="F"/><path d="M142.88 259.143l-1.592 2.855c.798 1.505 1.254 3.22 1.254 5.04 0 5.954-4.827 10.78-10.78 10.78s-10.78-4.827-10.78-10.78 4.826-10.782 10.78-10.782c2.997 0 5.707 1.225 7.66 3.2z" class="E"/><g fill="#fff"><path d="M126.154 268.012h.42v-1.503c0-.46.137-.658.46-.658.253 0 .43.127.663.415v1.746h.415v-2.46h-.344l-.035.384h-.016c-.227-.268-.47-.445-.8-.445-.522 0-.754.334-.754.96zm4.3-2.172c.405 0 .704.37.704.977 0 .54-.183.905-.648.905-.208 0-.415-.116-.658-.333v-1.3c.223-.187.44-.258.602-.258m-.602-.496v-.83h-.416v3.497h.345l.035-.283h.015c.223.187.496.343.785.343.632 0 .97-.5.97-1.254 0-.835-.5-1.326-1.062-1.326-.228 0-.455.106-.684.284zm2.832.755c.212-.172.43-.294.724-.294.323 0 .485.172.485.385 0 .253-.293.364-.562.465-.35.127-.733.294-.733.7 0 .395.314.698.845.698a1.23 1.23 0 0 0 .764-.278l-.197-.263c-.167.126-.344.217-.562.217-.308 0-.45-.167-.45-.354 0-.227.268-.32.546-.425.354-.13.75-.278.75-.744 0-.4-.32-.734-.9-.734-.35 0-.683.147-.916.34z"/><use xlink:href="#L"/><use xlink:href="#L" x="1.765"/></g><path d="M101.545 129.506s-2.265 2.115-.745 10.14 5.376 15.73 3.485 24.434S87.56 194.735 87.5 196.194s-4.576-25.535 3.095-36.168 8.593-14.324 8.253-19.916.08-10.095.92-11.395z" class="B"/><path d="M100.14 145.645c-.892-3.58-1.43-12.555-.005-14.703.133-.2.324-.087.562.284-.434 1.483-.72 4.084.102 8.42 1.52 8.024 5.376 15.73 3.485 24.435S87.56 194.735 87.5 196.195c0 0 2.235-18.288 9.763-30.875 5.39-9.012 3.76-16.096 2.868-19.675" class="C"/><path d="M104.25 130.063s-4.357 10.88 3.028 20.3 19.196 21.515 19.43 26.307c0 0 3.036-22.75-6.577-29.19s-16.355-7.467-14.688-17.376z" class="B"/><path d="M114.626 152.054c-10.72-7.802-11.595-16.79-9.932-20.957.13-.324.374-.522.698-.628-1.437 9.564 5.25 10.652 14.74 17.01 9.613 6.44 6.578 29.19 6.578 29.19s-1.365-16.815-12.084-24.617" class="C"/><path d="M97.083 129.818s1.398 5.76.654 11.98-7.24 9.72-13.31 16.29c-3.124 3.38-4.048 21.254-2.11 22.915 0 0-10.718-12.99-9.065-22.5s19.138-15.69 20.756-20.287 1.485-8.453 1.485-8.453z" class="B"/><g class="C"><path d="M78.692 175.9c-3.542-9.593.09-21.21 11.856-28.427 8.664-5.313 5.905-16.36 5.905-16.36l1.415 4.358c.125 1.885.14 4.08-.13 6.338-.744 6.22-7.24 9.72-13.312 16.288-3.012 3.26-3.978 19.998-2.305 22.673-.49-.618-1.878-2.415-3.428-4.87"/><path d="M82.12 180.76l.195.242c-.07-.058-.133-.143-.195-.242"/></g><path d="M106.493 130.538s2.512 9.32 8.725 10.575 13.347 10.436 13.733 12.237c0 0-1.048-17.315-22.458-22.812" class="B"/><path d="M114.863 138.032c-3.807-1.903-5.4-4.464-5.952-6.788 19.062 6.13 20.04 22.105 20.04 22.105-.076-.356-.424-1.006-.97-1.82-1.87-3.275-6.395-10.134-13.12-13.496" class="C"/><path d="M119.937 133.97H87.442l3.86-24.27c.293-1.84 1.88-3.196 3.744-3.196h17.29a3.79 3.79 0 0 1 3.744 3.196z" class="D"/><g fill="#ff9f50"><path d="M119.3 129.955l.638 4.015H87.443l.638-4.015z"/><path d="M112.065 133.97l-3.86-24.27c-.293-1.84-1.88-3.196-3.744-3.196h7.873a3.79 3.79 0 0 1 3.743 3.196l3.86 24.27z"/></g><path d="M344.065 147.393H197.202v29.86h146.863z" class="D"/><g clip-path="url(#D)" opacity=".3" class="G"><path d="M344.065 170.005H197.202v7.248h146.863z"/></g><path d="M209.972 177.253h13.404l-3.592-7.25h-13.412zm30.198 0h13.404l-3.592-7.25h-13.405zm30.2 0h13.404l-3.592-7.25h-13.405zm30.2 0h13.397l-3.592-7.25h-13.398zm43.495 0v-.202l-3.5-7.05h-13.4l3.593 7.25z" fill="#f77e2d"/><path d="M225.837 147.4h-10.353v-40.828h10.353z" class="B"/><path d="M225.837 147.4h-2.352v-40.828h2.352z" class="C"/><path d="M326.588 147.4h-10.353v-40.828h10.353z" class="B"/><g class="C"><path d="M326.588 147.4h-3.06v-40.828h3.06zm-100.75.022h-10.353v-5.142h10.353z"/><path d="M326.588 147.422h-10.353v-5.142h10.353z"/></g><path d="M225.837 177.282h-10.353v4.636h10.353z" class="B"/><path d="M225.837 177.282h-2.352v4.636h2.352z" class="C"/><path d="M326.588 177.282h-10.353v4.636h10.353z" class="B"/><g class="C"><path d="M326.588 177.282h-3.06v4.636h3.06zm-100.75-.004h-10.353v.584h10.353z"/><path d="M326.588 177.278h-10.353v.584h10.353z"/></g><path d="M223.376 177.253l-14.8-29.86h-11.363v4.12l12.77 25.74zm16.794 0l-14.8-29.86h13.404l14.8 29.86zm43.604 0l-14.8-29.86H255.56l14.8 29.86zm30.193 0l-14.804-29.86H285.76l14.8 29.86zm16.803 0l-14.812-29.86h13.398l14.7 29.658z" class="E"/><path d="M223.376 177.253l-3.593-7.25h-13.4l3.6 7.25zm30.2 0l-3.593-7.25h-13.404l3.593 7.25zm30.2 0l-3.593-7.25h-13.404l3.593 7.25zm30.193 0l-3.593-7.25h-13.397l3.593 7.25zm30.098-.203l-3.5-7.05h-13.4l3.593 7.25z" class="F"/><g clip-path="url(#E)" opacity=".55"><g clip-path="url(#F)"><g mask="url(#H)"><path d="M341.534 164.334h-140.24v-14.936h140.24z" fill="url(#I)"/></g></g></g><path d="M229.62 188.398c0 5.098-4.133 9.23-9.23 9.23a9.23 9.23 0 0 1 0-18.461c5.098 0 9.23 4.132 9.23 9.23" class="D"/><path d="M224.574 188.398c0 2.3-1.873 4.183-4.184 4.183s-4.183-1.873-4.183-4.183 1.873-4.184 4.183-4.184 4.184 1.873 4.184 4.184" class="E"/><path d="M330.58 188.398a9.23 9.23 0 0 1-9.23 9.23c-5.098 0-9.23-4.132-9.23-9.23s4.133-9.23 9.23-9.23a9.23 9.23 0 0 1 9.23 9.231" class="D"/><path d="M325.534 188.398c0 2.3-1.873 4.183-4.184 4.183s-4.182-1.873-4.182-4.183 1.872-4.184 4.182-4.184 4.184 1.873 4.184 4.184" class="E"/><path d="M399.705 109.726h-46.773l20.886 50.68c.92 2.23 4.08 2.23 5 0l13.732-33.336z" class="D"/><g clip-path="url(#J)" opacity=".3" class="G"><path d="M355.998 117.162l-3.064-7.436H399.7l-3.065 7.436z"/></g><path d="M402.766 114.172h-53.57V106.6h53.57z" class="B"/><path d="M391.19 106.6h11.574v7.573H391.19z" class="C"/><g clip-path="url(#K)" opacity=".3" class="G"><path d="M397.865 114.175h-6.616l-5.315 12.9-3.67 8.916-1.556 3.76-7.693 18.694.803 1.958c.92 2.23 4.08 2.23 5 0l13.732-33.336z"/></g><path d="M387.324 139.753h-22.012l2.878 6.998h16.257zm5.226-12.673v-.01h-32.465v.01l2.878 6.997h26.7z" class="E"/><path d="M387.324 139.753h-6.616l-2.877 6.998h6.616zm5.226-12.673v-.01h-6.616v.01l-2.878 6.997h6.616z" class="F"/><path d="M101.558 279.792c3.495 0 6.533 2.538 7.005 6a14.16 14.16 0 0 1 .128 1.899 13.96 13.96 0 0 1-13.958 13.959 13.94 13.94 0 0 1-.941-.035 14.83 14.83 0 0 1-29.6-1.254 14.83 14.83 0 0 1 .043-1.079c-2.324 1.298-5.032 1.992-7.913 1.86-7.45-.34-13.57-6.3-14.096-13.736l-.01-.177c-.24-4.045 3.03-7.437 7.082-7.437zm333.134-10.964c11.038 0 11.65 16.612.624 17.147-.3.015-.603.022-.9.022a18.42 18.42 0 0 1-5.641-.882c-1.475 9-9.278 15.853-18.687 15.853-9.616 0-17.553-7.168-18.774-16.45-2.282 1.094-4.838 1.707-7.537 1.707a17.5 17.5 0 0 1-4.366-.55c-9.652-2.486-7.626-16.846 2.34-16.846zm-132.557 81.85c11.035 0 11.646 16.607.624 17.143a19.48 19.48 0 0 1-.908.022 18.41 18.41 0 0 1-5.64-.883 18.94 18.94 0 0 1-37.45-.597c-2.28 1.093-4.836 1.706-7.534 1.706-1.508 0-2.97-.2-4.365-.55-9.65-2.484-7.624-16.84 2.34-16.84z" fill="#d7f0f9"/><path d="M152.9 346.437c0 14.61-11.844 26.455-26.455 26.455a26.46 26.46 0 0 1-26.455-26.455c0-14.6 11.845-26.455 26.455-26.455a26.46 26.46 0 0 1 26.455 26.455" class="D"/><path d="M126.664 372.887c7.195-4.728 11.95-12.867 11.95-22.12a26.46 26.46 0 0 0-26.455-26.454c-.073 0-.145.005-.218.005a26.32 26.32 0 0 1 14.506-4.335c14.61 0 26.455 11.844 26.455 26.454 0 14.538-11.727 26.332-26.237 26.45" fill="#ff9f50"/></g></svg>