<svg id="Capa_1" enable-background="new 0 0 512 512" height="512" viewBox="0 0 512 512" width="512" xmlns="http://www.w3.org/2000/svg"><path d="m502 66v40h-336v-60h316c11.05 0 20 8.95 20 20z" fill="#ff7b79"/><path d="m166 46v60h-156v-40c0-11.05 8.95-20 20-20z" fill="#8690af"/><path d="m502 106v340c0 11.05-8.95 20-20 20h-452c-11.05 0-20-8.95-20-20v-340z" fill="#ecf2f3"/><path d="m174.32 220.453c-3.063-4.595-9.272-5.838-13.867-2.773l-90 60c-2.782 1.854-4.453 4.976-4.453 8.32s1.671 6.466 4.453 8.32l90 60c4.575 3.05 10.791 1.842 13.867-2.773 3.064-4.595 1.822-10.804-2.773-13.867l-77.519-51.68 77.519-51.68c4.595-3.063 5.837-9.272 2.773-13.867z"/><path d="m337.68 351.547c3.072 4.608 9.285 5.829 13.867 2.773l90-60c2.782-1.854 4.453-4.977 4.453-8.32s-1.671-6.466-4.453-8.32l-90-60c-4.595-3.063-10.803-1.822-13.867 2.773s-1.822 10.804 2.773 13.867l77.519 51.68-77.519 51.68c-4.595 3.063-5.837 9.272-2.773 13.867z"/><path d="m290.472 217.056c-4.939-2.471-10.947-.468-13.417 4.472l-60 120c-2.47 4.94-.468 10.947 4.472 13.417 4.951 2.475 10.952.457 13.417-4.472l60-120c2.47-4.941.468-10.948-4.472-13.417z"/><circle cx="256" cy="466" r="10"/><path d="m30 476h181c5.523 0 10-4.477 10-10s-4.477-10-10-10h-181c-5.514 0-10-4.486-10-10v-330h472v330c0 5.514-4.486 10-10 10h-181c-5.523 0-10 4.477-10 10s4.477 10 10 10h181c16.542 0 30-13.458 30-30v-380c0-16.542-13.458-30-30-30h-452c-16.542 0-30 13.458-30 30v380c0 16.542 13.458 30 30 30zm462-410v30h-316v-40h306c5.514 0 10 4.486 10 10zm-462-10h126v40h-136v-30c0-5.514 4.486-10 10-10z"/></svg>