<?xml version="1.0" encoding="iso-8859-1"?>
<!-- Generator: Adobe Illustrator 18.0.0, SVG Export Plug-In . SVG Version: 6.00 Build 0)  -->
<!DOCTYPE svg PUBLIC "-//W3C//DTD SVG 1.1//EN" "http://www.w3.org/Graphics/SVG/1.1/DTD/svg11.dtd">
<svg version="1.1" id="Capa_1" xmlns="http://www.w3.org/2000/svg" xmlns:xlink="http://www.w3.org/1999/xlink" x="0px" y="0px"
	 viewBox="0 0 451.486 451.486" style="enable-background:new 0 0 451.486 451.486;" xml:space="preserve">
<g>
	<path d="M152.841,149.025c2.242,0,4.437,0.23,6.563,0.678c-0.532-12.992,7.069-25.523,19.824-30.623
		c3.743-1.492,7.678-2.248,11.691-2.248c9.011,0,17.259,3.813,23.104,10.135l23.252-24.15c6.808-7.064,6.616-18.309-0.478-25.117
		c-3.443-3.32-7.886-4.967-12.323-4.967c-4.659,0-9.311,1.818-12.792,5.451l-70.316,73.037
		C145.056,149.779,148.906,149.025,152.841,149.025z"/>
	<path d="M112.855,313.141c4.028-6.592,9.943-11.582,17.059-14.408c4.229-1.695,8.68-2.557,13.225-2.557
		c6.531,0,12.931,1.809,18.53,5.244l7.216,4.42l-0.5-1.248l-5.368-13.477h0.006l-39.471-98.822
		c-2.88-7.199-2.896-15.004-0.315-22.242l-6.022,6.254l-0.024-0.023l-38.217,39.703l7.942-62.623
		c0.909-7.225-1.749-14.086-6.663-18.793c-3.304-3.203-7.648-5.383-12.593-5.998c-0.955-0.123-1.909-0.186-2.849-0.186
		c-10.999,0-20.555,8.203-21.973,19.408L4.445,333.875c-1.756,8.533,0.978,17.375,7.256,23.412l65.48,63.055
		c4.859,4.674,11.205,7.092,17.606,7.092c4.504,0,9.033-1.193,13.093-3.641l55.636-33.52l-39.571-28.719
		C107.742,351.156,102.75,329.576,112.855,313.141z"/>
	<path d="M270.023,133.77l3.358,8.41L288,126.99c6.8-7.063,6.57-18.33-0.494-25.131c-3.441-3.311-7.886-4.967-12.322-4.967
		c-4.651,0-9.305,1.824-12.792,5.453l-12.47,12.955C258.933,118.018,266.381,124.664,270.023,133.77z"/>
	<path d="M367.574,292.963l-50.707-126.955c-2.465-6.17-8.396-9.928-14.648-9.928c-1.95,0-3.937,0.363-5.854,1.133
		c-8.079,3.234-12.03,12.414-8.781,20.494l24.376,61.029c0.778,1.947,0.748,4.119-0.077,6.045c-0.823,1.916-2.378,3.434-4.328,4.211
		c-0.962,0.387-1.948,0.564-2.926,0.564c-3.128,0-6.091-1.881-7.325-4.961l-41.928-104.973c-2.464-6.172-8.387-9.928-14.648-9.928
		c-1.956,0-3.936,0.361-5.861,1.131c-8.079,3.227-12.023,12.408-8.779,20.494l41.92,104.982c0.777,1.941,0.748,4.113-0.078,6.037
		c-0.823,1.918-2.38,3.436-4.32,4.213c-0.954,0.377-1.94,0.564-2.912,0.564c-3.134,0-6.107-1.881-7.339-4.969l-47.781-119.631
		c-2.464-6.162-8.395-9.912-14.656-9.912c-1.948,0-3.928,0.361-5.846,1.123c-8.087,3.236-12.03,12.408-8.795,20.502l47.789,119.615
		c0.778,1.951,0.746,4.123-0.077,6.039c-0.825,1.926-2.388,3.443-4.328,4.221c-0.955,0.377-1.941,0.563-2.912,0.563
		c-3.134,0-6.107-1.879-7.339-4.969l-41.928-104.975c-2.458-6.168-8.38-9.926-14.643-9.926c-1.948,0-3.936,0.361-5.859,1.131
		c-8.087,3.229-12.03,12.408-8.789,20.494l44.855,112.309l-0.016,0.008l14.988,37.521c0.446,1.131,0.123,2.418-0.809,3.205
		c-0.516,0.438-1.163,0.662-1.817,0.662c-0.508,0-1.023-0.139-1.48-0.416l-40.494-24.855c-3.213-1.963-6.77-2.91-10.282-2.91
		c-2.52,0-5.022,0.484-7.363,1.426c-3.796,1.51-7.163,4.229-9.465,7.994c-5.699,9.271-2.795,21.41,6.484,27.117l135.243,98.166
		c4.406,3.188,9.634,4.836,14.918,4.836c3.172,0,6.369-0.592,9.41-1.809l71.457-28.543c10.659-4.26,17.136-15.148,15.789-26.557
		l-12.022-101.539C367.574,293.018,367.582,292.986,367.574,292.963z"/>
	<path d="M364.771,94.436c-5.838-2.881-12.947-0.523-15.866,5.314c-2.912,5.854-0.532,12.953,5.313,15.865
		c13.04,6.492,22.767,17.66,27.389,31.461c4.628,13.803,3.604,28.574-2.882,41.605c-2.91,5.854-0.531,12.953,5.315,15.865
		c1.694,0.84,3.496,1.24,5.267,1.24c4.344,0,8.527-2.404,10.598-6.553c9.305-18.693,10.775-39.889,4.136-59.682
		C397.402,119.768,383.454,103.74,364.771,94.436z"/>
	<path d="M382.361,59.092c-5.8-2.928-12.931-0.523-15.858,5.322c-2.91,5.846-0.531,12.947,5.322,15.859
		c46.381,23.088,65.333,79.611,42.245,126.006c-2.912,5.846-0.532,12.947,5.322,15.857c1.686,0.848,3.489,1.24,5.26,1.24
		c4.344,0,8.525-2.402,10.596-6.561C464.154,158.754,440.431,87.996,382.361,59.092z"/>
	<path d="M194.347,54.24c1.093-6.438-3.243-12.545-9.689-13.641c-20.609-3.465-41.288,1.271-58.303,13.371
		c-17.013,12.092-28.303,30.09-31.776,50.678c-1.093,6.439,3.243,12.545,9.688,13.639c0.671,0.109,1.333,0.162,1.987,0.162
		c5.669,0,10.675-4.082,11.646-9.857c2.434-14.357,10.296-26.91,22.165-35.344c11.852-8.441,26.278-11.768,40.649-9.313
		C187.184,64.922,193.26,60.688,194.347,54.24z"/>
	<path d="M65.343,111.701c0.67,0.109,1.331,0.164,1.987,0.164c5.667,0,10.674-4.082,11.652-9.859
		c8.634-51.078,57.162-85.666,108.309-77c6.438,1.008,12.546-3.26,13.641-9.697c1.085-6.447-3.259-12.547-9.697-13.641
		c-30.991-5.223-62.152,1.91-87.754,20.117C77.874,39.992,60.884,67.078,55.646,98.063C54.561,104.51,58.905,110.609,65.343,111.701
		z"/>
</g>
<g>
</g>
<g>
</g>
<g>
</g>
<g>
</g>
<g>
</g>
<g>
</g>
<g>
</g>
<g>
</g>
<g>
</g>
<g>
</g>
<g>
</g>
<g>
</g>
<g>
</g>
<g>
</g>
<g>
</g>
</svg>
