<?xml version="1.0" encoding="iso-8859-1"?>
<!-- Generator: Adobe Illustrator 19.0.0, SVG Export Plug-In . SVG Version: 6.00 Build 0)  -->
<svg version="1.1" id="Capa_1" xmlns="http://www.w3.org/2000/svg" xmlns:xlink="http://www.w3.org/1999/xlink" x="0px" y="0px"
	 viewBox="0 0 426.667 426.667" style="enable-background:new 0 0 426.667 426.667;" xml:space="preserve">
<path style="fill:#303C42;" d="M352,256c-27.902,0-51.993,15.57-64.807,38.307l-139.844-53.785
	c1.214-5.333,1.984-10.827,1.984-16.522c0-7.388-1.41-14.385-3.418-21.13l143.579-66.275c13.333,20.458,36.32,34.072,62.505,34.072
	c41.167,0,74.667-33.5,74.667-74.667S393.167,21.333,352,21.333S277.333,54.833,277.333,96c0,7.388,1.41,14.385,3.418,21.13
	l-143.579,66.275c-13.333-20.458-36.32-34.072-62.505-34.072C33.5,149.333,0,182.833,0,224s33.5,74.667,74.667,74.667
	c27.902,0,51.993-15.57,64.807-38.307l139.844,53.785c-1.214,5.333-1.984,10.827-1.984,16.522c0,41.167,33.5,74.667,74.667,74.667
	s74.667-33.5,74.667-74.667S393.167,256,352,256z"/>
<circle style="fill:#3D82C4;" cx="352" cy="96" r="53.333"/>
<path style="opacity:0.2;fill:#FFFFFF;enable-background:new    ;" d="M352,64c25.754,0,47.298,18.353,52.254,42.667
	c0.703-3.448,1.079-7.014,1.079-10.667c0-29.406-23.927-53.333-53.333-53.333S298.667,66.594,298.667,96
	c0,3.652,0.376,7.219,1.079,10.667C304.702,82.353,326.246,64,352,64z"/>
<circle style="fill:#3D82C4;" cx="352" cy="330.667" r="53.333"/>
<path style="opacity:0.2;fill:#FFFFFF;enable-background:new    ;" d="M352,298.667c25.754,0,47.298,18.353,52.254,42.667
	c0.703-3.448,1.079-7.014,1.079-10.667c0-29.406-23.927-53.333-53.333-53.333s-53.333,23.927-53.333,53.333
	c0,3.652,0.376,7.219,1.079,10.667C304.702,317.02,326.246,298.667,352,298.667z"/>
<circle style="fill:#3D82C4;" cx="74.667" cy="224" r="53.333"/>
<path style="opacity:0.2;fill:#FFFFFF;enable-background:new    ;" d="M74.667,192c25.754,0,47.298,18.353,52.254,42.667
	C127.624,231.219,128,227.652,128,224c0-29.406-23.927-53.333-53.333-53.333S21.333,194.594,21.333,224
	c0,3.652,0.376,7.219,1.079,10.667C27.368,210.353,48.913,192,74.667,192z"/>
<linearGradient id="SVGID_1_" gradientUnits="userSpaceOnUse" x1="-84.7314" y1="597.7507" x2="-65.7947" y2="588.9199" gradientTransform="matrix(21.3333 0 0 -21.3333 1863.8889 12838.7783)">
	<stop  offset="0" style="stop-color:#FFFFFF;stop-opacity:0.2"/>
	<stop  offset="1" style="stop-color:#FFFFFF;stop-opacity:0"/>
</linearGradient>
<path style="fill:url(#SVGID_1_);" d="M352,256c-27.902,0-51.993,15.57-64.807,38.307l-139.844-53.785
	c1.214-5.333,1.984-10.827,1.984-16.522c0-7.388-1.41-14.385-3.418-21.13l143.579-66.275c13.333,20.458,36.32,34.072,62.505,34.072
	c41.167,0,74.667-33.5,74.667-74.667S393.167,21.333,352,21.333S277.333,54.833,277.333,96c0,7.388,1.41,14.385,3.418,21.13
	l-143.579,66.275c-13.333-20.458-36.32-34.072-62.505-34.072C33.5,149.333,0,182.833,0,224s33.5,74.667,74.667,74.667
	c27.902,0,51.993-15.57,64.807-38.307l139.844,53.785c-1.214,5.333-1.984,10.827-1.984,16.522c0,41.167,33.5,74.667,74.667,74.667
	s74.667-33.5,74.667-74.667S393.167,256,352,256z"/>
</svg>
