<?xml version="1.0"?>
<svg xmlns="http://www.w3.org/2000/svg" height="512px" viewBox="0 0 464 464" width="512px" class=""><g><path d="m0 64h464v400h-464zm0 0" fill="#fef1d8" data-original="#FEF1D8" class="" data-old_color="#fef1d8" style="fill:#F2F2F2"/><path d="m0 0h464v64h-464zm0 0" fill="#abb1ba" data-original="#ABB1BA" class=""/><g fill="#fff"><path d="m104 32c0 4.417969-3.582031 8-8 8s-8-3.582031-8-8 3.582031-8 8-8 8 3.582031 8 8zm0 0" data-original="#000000" class=""/><path d="m72 32c0 4.417969-3.582031 8-8 8s-8-3.582031-8-8 3.582031-8 8-8 8 3.582031 8 8zm0 0" data-original="#000000" class=""/><path d="m40 32c0 4.417969-3.582031 8-8 8s-8-3.582031-8-8 3.582031-8 8-8 8 3.582031 8 8zm0 0" data-original="#000000" class=""/><path d="m432 40h-16c-4.417969 0-8-3.582031-8-8s3.582031-8 8-8h16c4.417969 0 8 3.582031 8 8s-3.582031 8-8 8zm0 0" data-original="#000000" class=""/></g><path d="m311.113281 384-79.113281-43.726562-79.113281 43.726562 15.113281-92.625-64-65.589844 88.449219-13.511718 39.550781-84.273438 39.550781 84.273438 88.449219 13.511718-64 65.589844zm0 0" fill="#f7cc38" data-original="#F7CC38" class="active-path" data-old_color="#f7cc38" style="fill:#2196F3"/></g> </svg>
